:FULLY-SPECIFIED
:FORCE-ALL-JOINTS-BE-3DOF
:DEGREES
679
root 5.4325 17.8408 1.31703 16.0788 -31.4023 1.86725
lfemur -30.0029 13.9112 -2.72935
ltibia 81.1746 -0 0
lfoot -15.0298 8.81058 -1.37338
ltoes 26.7216 -0 0
rfemur -29.7608 -18.1079 19.0615
rtibia 32.4685 -0 0
rfoot 8.00254 -3.07923 0.967868
rtoes 1.15955 -0 0
lowerback 1.15681 -3.76152 -4.46826
upperback -1.79407 -5.18242 -1.65137
thorax -2.21263 -2.52882 0.905078
lowerneck -8.13568 -5.59113 -0.360681
upperneck 2.77205 -7.74078 5.53563
head 2.55977 -3.68794 1.46477
lclavicle 2.063e-14 -2.52118e-15 9.24361e-30
lhumerus 24.2661 -51.7674 37.36
lradius 75.0856 -0 0
lwrist 28.5834 0 0
lhand -14.2451 -1.35222 0.405901
lfingers 7.12502 -0 0
lthumb 11.8802 28.0584 0.343215
rclavicle 2.063e-14 -2.52118e-15 9.24361e-30
rhumerus -38.1208 -8.32636 -40.754
rradius 80.2987 -0 0
rwrist -12.3234 0 0
rhand -32.7359 -45.9904 -0.13485
rfingers 7.12502 -0 0
rthumb -5.95866 -75.8651 -0.132337
680
root 5.42888 17.92 1.46388 16.0119 -32.8624 1.86752
lfemur -30.829 13.6366 -1.40288
ltibia 83.2486 -0 0
lfoot -13.9467 8.45827 -1.36006
ltoes 27.1586 -0 0
rfemur -28.4237 -17.2725 18.4055
rtibia 30.7596 -0 0
rfoot 8.84988 -2.76345 0.958527
rtoes 0.872123 -0 0
lowerback 1.21745 -3.71718 -4.37271
upperback -1.80416 -5.12693 -1.69019
thorax -2.27175 -2.50222 0.817279
lowerneck -8.05345 -5.54924 -0.344451
upperneck 2.80301 -7.68514 5.49888
head 2.55048 -3.6621 1.45493
lclavicle 1.80167e-14 -1.55149e-15 9.15515e-30
lhumerus 24.8864 -50.2297 35.6472
lradius 75.1044 -0 0
lwrist 28.7222 0 0
lhand -14.7187 -1.58782 0.402006
lfingers 7.12502 -0 0
lthumb 11.4238 27.8517 0.339922
rclavicle 1.80167e-14 -1.55149e-15 9.15515e-30
rhumerus -37.6933 -8.35472 -39.3178
rradius 81.3584 -0 0
rwrist -12.1066 0 0
rhand -32.8884 -45.7478 -0.133559
rfingers 7.12502 -0 0
rthumb -6.1059 -75.6185 -0.13107
681
root 5.42527 17.9992 1.61073 15.9439 -34.3226 1.86985
lfemur -31.6605 13.3807 -0.0739437
ltibia 85.3227 -0 0
lfoot -12.8637 8.10629 -1.34008
ltoes 27.5957 -0 0
rfemur -27.1025 -16.4227 17.7728
rtibia 29.0508 -0 0
rfoot 9.69716 -2.44784 0.944517
rtoes 0.584696 -0 0
lowerback 1.27816 -3.67294 -4.27712
upperback -1.81429 -5.07144 -1.72903
thorax -2.33091 -2.4757 0.729454
lowerneck -7.97122 -5.50737 -0.328162
upperneck 2.83393 -7.62949 5.46216
head 2.54119 -3.63626 1.44508
lclavicle 1.54034e-14 -5.8181e-16 9.02247e-30
lhumerus 25.4175 -48.6812 34.0128
lradius 75.1232 -0 0
lwrist 28.861 0 0
lhand -15.1924 -1.82338 0.396163
lfingers 7.12502 -0 0
lthumb 10.9675 27.645 0.334983
rclavicle 1.54034e-14 -5.8181e-16 9.02247e-30
rhumerus -37.2666 -8.39368 -37.8817
rradius 82.4181 -0 0
rwrist -11.8899 0 0
rhand -33.0409 -45.5052 -0.131621
rfingers 7.12502 -0 0
rthumb -6.25314 -75.3719 -0.129168
682
root 5.42168 18.0784 1.75758 15.8745 -35.7827 1.87436
lfemur -32.4971 13.1436 1.25731
ltibia 87.3968 -0 0
lfoot -11.7809 7.75475 -1.31345
ltoes 28.0327 -0 0
rfemur -25.7969 -15.5593 17.1634
rtibia 27.3419 -0 0
rfoot 10.5443 -2.13248 0.925842
rtoes 0.297269 -0 0
lowerback 1.33894 -3.6288 -4.18149
upperback -1.82446 -5.01596 -1.76786
thorax -2.39011 -2.44928 0.641605
lowerneck -7.88899 -5.46552 -0.311813
upperneck 2.86481 -7.57381 5.42548
head 2.5319 -3.61042 1.43523
lclavicle 1.27901e-14 3.87873e-16 8.84556e-30
lhumerus 25.8679 -47.1237 32.4479
lradius 75.1421 -0 0
lwrist 28.9998 0 0
lhand -15.666 -2.05888 0.388373
lfingers 7.12502 -0 0
lthumb 10.5112 27.4384 0.328398
rclavicle 1.27901e-14 3.87873e-16 8.84556e-30
rhumerus -36.841 -8.44321 -36.4458
rradius 83.4778 -0 0
rwrist -11.6732 0 0
rhand -33.1934 -45.2626 -0.129038
rfingers 7.12502 -0 0
rthumb -6.40036 -75.1253 -0.126634
683
root 5.41809 18.1576 1.90443 15.8037 -37.2428 1.88117
lfemur -33.3383 12.9255 2.59076
ltibia 89.4709 -0 0
lfoot -10.6982 7.40378 -1.28019
ltoes 28.4697 -0 0
rfemur -24.5061 -14.6829 16.577
rtibia 25.633 -0 0
rfoot 11.3914 -1.81743 0.902508
rtoes 0.00984217 -0 0
lowerback 1.39979 -3.58476 -4.08582
upperback -1.83466 -4.96048 -1.80671
thorax -2.44935 -2.42295 0.553731
lowerneck -7.80674 -5.4237 -0.295406
upperneck 2.89565 -7.51812 5.38883
head 2.5226 -3.58458 1.42538
lclavicle 1.01768e-14 1.35756e-15 8.62442e-30
lhumerus 26.2446 -45.5587 30.9446
lradius 75.1609 -0 0
lwrist 29.1386 0 0
lhand -16.1395 -2.29431 0.378636
lfingers 7.12502 -0 0
lthumb 10.0549 27.2318 0.320168
rclavicle 1.01768e-14 1.35756e-15 8.62442e-30
rhumerus -36.4167 -8.50327 -35.0101
rradius 84.5375 -0 0
rwrist -11.4565 0 0
rhand -33.3459 -45.02 -0.12581
rfingers 7.12502 -0 0
rthumb -6.54757 -74.8787 -0.123465
684
root 5.41452 18.2368 2.05128 15.7312 -38.7029 1.89044
lfemur -34.1838 12.7266 3.92624
ltibia 91.5449 -0 0
lfoot -9.6158 7.05351 -1.24031
ltoes 28.9068 -0 0
rfemur -23.2297 -13.794 16.0133
rtibia 23.9242 -0 0
rfoot 12.2383 -1.50276 0.874519
rtoes -0.277584 0 0
lowerback 1.46071 -3.54083 -3.9901
upperback -1.84491 -4.90502 -1.84556
thorax -2.50863 -2.39671 0.465832
lowerneck -7.72449 -5.38191 -0.27894
upperneck 2.92645 -7.4624 5.35222
head 2.5133 -3.55874 1.41552
lclavicle 7.5635e-15 2.32724e-15 8.35905e-30
lhumerus 26.5541 -43.9875 29.4959
lradius 75.1798 -0 0
lwrist 29.2774 0 0
lhand -16.6131 -2.52965 0.366955
lfingers 7.12502 -0 0
lthumb 9.59862 27.0253 0.310292
rclavicle 7.5635e-15 2.32724e-15 8.35905e-30
rhumerus -35.994 -8.57382 -33.5747
rradius 85.5972 -0 0
rwrist -11.2398 0 0
rhand -33.4983 -44.7775 -0.121936
rfingers 7.12502 -0 0
rthumb -6.69477 -74.6322 -0.119663
685
root 5.41096 18.316 2.19813 15.6569 -40.163 1.90232
lfemur -35.0331 12.5469 5.26359
ltibia 93.619 -0 0
lfoot -8.53367 6.70405 -1.19382
ltoes 29.3438 -0 0
rfemur -21.967 -12.8932 15.4721
rtibia 22.2153 -0 0
rfoot 13.0851 -1.18854 0.841884
rtoes -0.565011 0 0
lowerback 1.5217 -3.497 -3.89435
upperback -1.85518 -4.84956 -1.88442
thorax -2.56794 -2.37055 0.377909
lowerneck -7.64224 -5.34013 -0.262414
upperneck 2.95721 -7.40667 5.31565
head 2.50399 -3.53291 1.40566
lclavicle 4.9502e-15 3.29692e-15 8.04946e-30
lhumerus 26.8019 -42.4113 28.0956
lradius 75.1986 -0 0
lwrist 29.4162 0 0
lhand -17.0865 -2.76489 0.353329
lfingers 7.12502 -0 0
lthumb 9.14241 26.8189 0.298773
rclavicle 4.9502e-15 3.29692e-15 8.04946e-30
rhumerus -35.5731 -8.65483 -32.1395
rradius 86.6569 -0 0
rwrist -11.0231 0 0
rhand -33.6508 -44.5349 -0.117416
rfingers 7.12502 -0 0
rthumb -6.84195 -74.3856 -0.115228
686
root 5.40742 18.3952 2.34498 15.5806 -41.623 1.91699
lfemur -35.886 12.3866 6.60264
ltibia 95.6931 -0 0
lfoot -7.45185 6.35555 -1.14074
ltoes 29.7809 -0 0
rfemur -20.7175 -11.9811 14.9533
rtibia 20.5064 -0 0
rfoot 13.9316 -0.874844 0.80461
rtoes -0.852438 0 0
lowerback 1.58275 -3.45327 -3.79855
upperback -1.8655 -4.7941 -1.92328
thorax -2.6273 -2.3445 0.289961
lowerneck -7.55998 -5.29838 -0.24583
upperneck 2.98793 -7.35091 5.2791
head 2.49468 -3.50707 1.39579
lclavicle 2.33691e-15 4.2666e-15 7.69563e-30
lhumerus 26.9926 -40.8313 26.7382
lradius 75.2174 -0 0
lwrist 29.555 0 0
lhand -17.5599 -3 0.337759
lfingers 7.12502 -0 0
lthumb 8.68624 26.6126 0.285611
rclavicle 2.33691e-15 4.2666e-15 7.69563e-30
rhumerus -35.1543 -8.74623 -30.7047
rradius 87.7166 -0 0
rwrist -10.8064 0 0
rhand -33.8032 -44.2923 -0.112251
rfingers 7.12502 -0 0
rthumb -6.98911 -74.139 -0.110159
687
root 5.40388 18.4745 2.49183 15.5019 -43.0831 1.93468
lfemur -36.742 12.2459 7.94322
ltibia 97.7672 -0 0
lfoot -6.37041 6.00811 -1.08109
ltoes 30.2179 -0 0
rfemur -19.4805 -11.0582 14.4565
rtibia 18.7976 -0 0
rfoot 14.7779 -0.561734 0.762706
rtoes -1.13986 0 0
lowerback 1.64388 -3.40964 -3.70271
upperback -1.87585 -4.73866 -1.96215
thorax -2.68669 -2.31853 0.20199
lowerneck -7.47771 -5.25666 -0.229187
upperneck 3.01861 -7.29514 5.2426
head 2.48536 -3.48124 1.38592
lclavicle -2.7638e-16 5.23629e-15 7.29758e-30
lhumerus 27.1306 -39.2483 25.4187
lradius 75.2363 -0 0
lwrist 29.6938 0 0
lhand -18.0333 -3.23498 0.320248
lfingers 7.12502 -0 0
lthumb 8.23012 26.4064 0.270807
rclavicle -2.7638e-16 5.23629e-15 7.29758e-30
rhumerus -34.7379 -8.84796 -29.2701
rradius 88.7763 -0 0
rwrist -10.5897 0 0
rhand -33.9556 -44.0498 -0.106441
rfingers 7.12502 -0 0
rthumb -7.13625 -73.8925 -0.104457
688
root 5.40036 18.5537 2.63868 15.4206 -44.5431 1.95561
lfemur -37.6007 12.1247 9.28513
ltibia 99.8412 -0 0
lfoot -5.28936 5.66187 -1.01489
ltoes 30.655 -0 0
rfemur -18.2554 -10.1251 13.9816
rtibia 17.0887 -0 0
rfoot 15.624 -0.249279 0.716183
rtoes -1.42729 0 0
lowerback 1.70508 -3.36611 -3.60684
upperback -1.88624 -4.68322 -2.00103
thorax -2.74612 -2.29265 0.113995
lowerneck -7.39544 -5.21496 -0.212485
upperneck 3.04925 -7.23935 5.20613
head 2.47604 -3.45541 1.37605
lclavicle -2.88967e-15 6.20597e-15 6.85531e-30
lhumerus 27.2196 -37.6633 24.1326
lradius 75.2551 -0 0
lwrist 29.8326 0 0
lhand -18.5066 -3.4698 0.300796
lfingers 7.12502 -0 0
lthumb 7.77405 26.2003 0.254362
rclavicle -2.88967e-15 6.20597e-15 6.85531e-30
rhumerus -34.324 -8.95997 -27.836
rradius 89.836 -0 0
rwrist -10.373 0 0
rhand -34.108 -43.8073 -0.0999859
rfingers 7.12502 -0 0
rthumb -7.28336 -73.646 -0.0981226
689
root 5.39685 18.6329 2.78553 15.3365 -46.0031 1.98008
lfemur -38.4617 12.0233 10.6282
ltibia 101.915 -0 0
lfoot -4.20876 5.31695 -0.942183
ltoes 31.092 -0 0
rfemur -17.0417 -9.1822 13.5283
rtibia 15.3798 -0 0
rfoot 16.4698 0.0624507 0.665053
rtoes -1.71472 0 0
lowerback 1.76634 -3.32269 -3.51092
upperback -1.89667 -4.62779 -2.03991
thorax -2.80558 -2.26687 0.0259762
lowerneck -7.31317 -5.17328 -0.195724
upperneck 3.07985 -7.18354 5.16969
head 2.46672 -3.42958 1.36617
lclavicle -5.50297e-15 7.17565e-15 6.3688e-30
lhumerus 27.2627 -36.0772 22.8761
lradius 75.2739 -0 0
lwrist 29.9714 0 0
lhand -18.9797 -3.70446 0.279406
lfingers 7.12502 -0 0
lthumb 7.31805 25.9944 0.236278
rclavicle -5.50297e-15 7.17565e-15 6.3688e-30
rhumerus -33.913 -9.08217 -26.4022
rradius 90.8957 -0 0
rwrist -10.1562 0 0
rhand -34.2603 -43.5648 -0.0928859
rfingers 7.12502 -0 0
rthumb -7.43044 -73.3995 -0.0911548
